<!--?xml version="1.0" standalone="no"?-->
              <svg id="sw-js-blob-svg" viewBox="0 0 100 100" xmlns="http://www.w3.org/2000/svg" version="1.1">
                    <defs> 
                        <linearGradient id="sw-gradient" x1="0" x2="1" y1="1" y2="0">
                            <stop id="stop1" stop-color="rgba(237.921, 248, 55, 1)" offset="0%"></stop>
                            <stop id="stop2" stop-color="rgba(251, 168, 31, 1)" offset="100%"></stop>
                        </linearGradient>
                    </defs>
                <path fill="url(#sw-gradient)" d="M21.8,-26.5C25.4,-23.1,23.4,-13.4,24.7,-4.5C26.1,4.3,30.8,12.5,29,17.8C27.1,23.1,18.7,25.6,11.1,26.7C3.5,27.8,-3.2,27.6,-10.7,26.2C-18.1,24.9,-26.3,22.4,-28.9,17.1C-31.4,11.8,-28.2,3.7,-25.6,-3.3C-22.9,-10.4,-20.8,-16.3,-16.7,-19.7C-12.5,-23,-6.2,-23.8,1.5,-25.5C9.1,-27.2,18.3,-30,21.8,-26.5Z" width="100%" height="100%" transform="translate(50 50)" stroke-width="0" style="transition: 0.3s;" stroke="url(#sw-gradient)"></path>
              </svg>